<svg id="visual" viewBox="0 0 2000 8000" width="2000" height="8000" xmlns="http://www.w3.org/2000/svg" xmlns:xlink="http://www.w3.org/1999/xlink" version="1.1"><rect x="0" y="0" width="2000" height="8000" fill="#ccae77"></rect><defs><linearGradient id="grad1_0" x1="0%" y1="100%" x2="100%" y2="0%"><stop offset="30%" stop-color="#0f021f" stop-opacity="1"></stop><stop offset="70%" stop-color="#0f021f" stop-opacity="1"></stop></linearGradient></defs><defs><linearGradient id="grad1_1" x1="0%" y1="100%" x2="100%" y2="0%"><stop offset="30%" stop-color="#0f021f" stop-opacity="1"></stop><stop offset="70%" stop-color="#3b1f36" stop-opacity="1"></stop></linearGradient></defs><defs><linearGradient id="grad1_2" x1="0%" y1="100%" x2="100%" y2="0%"><stop offset="30%" stop-color="#693948" stop-opacity="1"></stop><stop offset="70%" stop-color="#3b1f36" stop-opacity="1"></stop></linearGradient></defs><defs><linearGradient id="grad1_3" x1="0%" y1="100%" x2="100%" y2="0%"><stop offset="30%" stop-color="#693948" stop-opacity="1"></stop><stop offset="70%" stop-color="#935956" stop-opacity="1"></stop></linearGradient></defs><defs><linearGradient id="grad1_4" x1="0%" y1="100%" x2="100%" y2="0%"><stop offset="30%" stop-color="#b58163" stop-opacity="1"></stop><stop offset="70%" stop-color="#935956" stop-opacity="1"></stop></linearGradient></defs><defs><linearGradient id="grad1_5" x1="0%" y1="100%" x2="100%" y2="0%"><stop offset="30%" stop-color="#b58163" stop-opacity="1"></stop><stop offset="70%" stop-color="#ccae77" stop-opacity="1"></stop></linearGradient></defs><defs><linearGradient id="grad2_0" x1="0%" y1="100%" x2="100%" y2="0%"><stop offset="30%" stop-color="#0f021f" stop-opacity="1"></stop><stop offset="70%" stop-color="#0f021f" stop-opacity="1"></stop></linearGradient></defs><defs><linearGradient id="grad2_1" x1="0%" y1="100%" x2="100%" y2="0%"><stop offset="30%" stop-color="#3b1f36" stop-opacity="1"></stop><stop offset="70%" stop-color="#0f021f" stop-opacity="1"></stop></linearGradient></defs><defs><linearGradient id="grad2_2" x1="0%" y1="100%" x2="100%" y2="0%"><stop offset="30%" stop-color="#3b1f36" stop-opacity="1"></stop><stop offset="70%" stop-color="#693948" stop-opacity="1"></stop></linearGradient></defs><defs><linearGradient id="grad2_3" x1="0%" y1="100%" x2="100%" y2="0%"><stop offset="30%" stop-color="#935956" stop-opacity="1"></stop><stop offset="70%" stop-color="#693948" stop-opacity="1"></stop></linearGradient></defs><defs><linearGradient id="grad2_4" x1="0%" y1="100%" x2="100%" y2="0%"><stop offset="30%" stop-color="#935956" stop-opacity="1"></stop><stop offset="70%" stop-color="#b58163" stop-opacity="1"></stop></linearGradient></defs><defs><linearGradient id="grad2_5" x1="0%" y1="100%" x2="100%" y2="0%"><stop offset="30%" stop-color="#ccae77" stop-opacity="1"></stop><stop offset="70%" stop-color="#b58163" stop-opacity="1"></stop></linearGradient></defs><g transform="translate(2000, 8000)"><path d="M-1200 0C-1244.8 -58.4 -1289.6 -116.8 -1288.9 -169.7C-1288.2 -222.6 -1242 -269.9 -1232.5 -330.3C-1223 -390.6 -1250.1 -464 -1187.2 -491.7C-1124.3 -519.5 -971.3 -501.8 -906.7 -523.5C-842.1 -545.2 -865.8 -606.4 -868.7 -666.6C-871.6 -726.8 -853.6 -785.9 -799.7 -799.7C-745.8 -813.6 -656 -782.3 -601.5 -783.8C-546.9 -785.4 -527.6 -819.9 -513 -888.5C-498.4 -957.2 -488.4 -1060.1 -448.9 -1083.7C-409.4 -1107.3 -340.5 -1051.7 -291.7 -1088.6C-242.9 -1125.5 -214.3 -1254.9 -169 -1283.9C-123.8 -1312.9 -61.9 -1241.5 0 -1170L0 0Z" fill="#c2976c"></path><path d="M-1000 0C-1037.3 -48.7 -1074.6 -97.3 -1074.1 -141.4C-1073.5 -185.5 -1035 -224.9 -1027.1 -275.2C-1019.2 -325.5 -1041.8 -386.6 -989.3 -409.8C-936.9 -433 -809.4 -418.1 -755.6 -436.3C-701.8 -454.4 -721.5 -505.4 -723.9 -555.5C-726.3 -605.6 -711.4 -654.9 -666.4 -666.4C-621.5 -678 -546.7 -651.9 -501.2 -653.2C-455.8 -654.5 -439.7 -683.2 -427.5 -740.5C-415.3 -797.7 -407 -883.4 -374.1 -903.1C-341.2 -922.8 -283.7 -876.4 -243.1 -907.2C-202.4 -937.9 -178.6 -1045.8 -140.9 -1069.9C-103.1 -1094.1 -51.6 -1034.5 0 -975L0 0Z" fill="#a66c5c"></path><path d="M-800 0C-829.9 -38.9 -859.7 -77.9 -859.3 -113.1C-858.8 -148.4 -828 -179.9 -821.7 -220.2C-815.3 -260.4 -833.4 -309.3 -791.5 -327.8C-749.5 -346.4 -647.6 -334.5 -604.5 -349C-561.4 -363.5 -577.2 -404.3 -579.1 -444.4C-581.1 -484.5 -569.1 -523.9 -533.2 -533.2C-497.2 -542.4 -437.3 -521.5 -401 -522.6C-364.6 -523.6 -351.8 -546.6 -342 -592.4C-332.2 -638.1 -325.6 -706.7 -299.3 -722.5C-272.9 -738.2 -227 -701.1 -194.5 -725.7C-161.9 -750.3 -142.9 -836.6 -112.7 -855.9C-82.5 -875.3 -41.3 -827.6 0 -780L0 0Z" fill="#7f484f"></path><path d="M-600 0C-622.4 -29.2 -644.8 -58.4 -644.4 -84.8C-644.1 -111.3 -621 -135 -616.3 -165.1C-611.5 -195.3 -625.1 -232 -593.6 -245.9C-562.1 -259.8 -485.7 -250.9 -453.4 -261.8C-421.1 -272.6 -432.9 -303.2 -434.4 -333.3C-435.8 -363.4 -426.8 -392.9 -399.9 -399.9C-372.9 -406.8 -328 -391.1 -300.7 -391.9C-273.5 -392.7 -263.8 -409.9 -256.5 -444.3C-249.2 -478.6 -244.2 -530 -224.4 -541.9C-204.7 -553.7 -170.2 -525.8 -145.8 -544.3C-121.5 -562.7 -107.1 -627.5 -84.5 -642C-61.9 -656.5 -30.9 -620.7 0 -585L0 0Z" fill="#522b40"></path><path d="M-400 0C-414.9 -19.5 -429.9 -38.9 -429.6 -56.6C-429.4 -74.2 -414 -90 -410.8 -110.1C-407.7 -130.2 -416.7 -154.7 -395.7 -163.9C-374.8 -173.2 -323.8 -167.3 -302.2 -174.5C-280.7 -181.7 -288.6 -202.1 -289.6 -222.2C-290.5 -242.3 -284.5 -262 -266.6 -266.6C-248.6 -271.2 -218.7 -260.8 -200.5 -261.3C-182.3 -261.8 -175.9 -273.3 -171 -296.2C-166.1 -319.1 -162.8 -353.4 -149.6 -361.2C-136.5 -369.1 -113.5 -350.6 -97.2 -362.9C-81 -375.2 -71.4 -418.3 -56.3 -428C-41.3 -437.6 -20.6 -413.8 0 -390L0 0Z" fill="#24132b"></path><path d="M-200 0C-207.5 -9.7 -214.9 -19.5 -214.8 -28.3C-214.7 -37.1 -207 -45 -205.4 -55C-203.8 -65.1 -208.4 -77.3 -197.9 -82C-187.4 -86.6 -161.9 -83.6 -151.1 -87.3C-140.4 -90.9 -144.3 -101.1 -144.8 -111.1C-145.3 -121.1 -142.3 -131 -133.3 -133.3C-124.3 -135.6 -109.3 -130.4 -100.2 -130.6C-91.2 -130.9 -87.9 -136.6 -85.5 -148.1C-83.1 -159.5 -81.4 -176.7 -74.8 -180.6C-68.2 -184.6 -56.7 -175.3 -48.6 -181.4C-40.5 -187.6 -35.7 -209.2 -28.2 -214C-20.6 -218.8 -10.3 -206.9 0 -195L0 0Z" fill="#0f021f"></path></g><g transform="translate(0, 0)"><path d="M1226 0C1128.4 40 1030.8 80.1 1045 137.6C1059.2 195.1 1185.1 270.1 1185.2 317.6C1185.3 365.1 1059.6 385.1 990.4 410.2C921.2 435.4 908.5 465.6 939.6 542.5C970.8 619.4 1045.9 742.8 1007.6 773.1C969.3 803.4 817.6 740.5 765.8 765.8C714 791.1 762.1 904.5 767 999.6C772 1094.7 733.8 1171.5 650 1125.8C566.2 1080.2 436.9 912.2 381.2 920.2C325.4 928.2 343.2 1112.2 313.9 1171.7C284.7 1231.1 208.6 1166 148.4 1127.3C88.3 1088.6 44.1 1076.3 0 1064L0 0Z" fill="#c2976c"></path><path d="M1021.7 0C940.3 33.4 859 66.7 870.8 114.6C882.6 162.6 987.6 225.1 987.7 264.6C987.8 304.2 883 320.9 825.3 341.9C767.7 362.8 757.1 388 783 452.1C809 516.1 871.6 619 839.6 644.3C807.7 669.5 681.3 617.1 638.2 638.2C595 659.2 635.1 753.8 639.2 833C643.3 912.3 611.5 976.2 541.7 938.2C471.9 900.2 364.1 760.1 317.6 766.8C271.2 773.5 286 926.9 261.6 976.4C237.3 1025.9 173.8 971.7 123.7 939.4C73.5 907.1 36.8 896.9 0 886.7L0 0Z" fill="#a66c5c"></path><path d="M817.3 0C752.3 26.7 687.2 53.4 696.7 91.7C706.1 130.1 790.1 180 790.1 211.7C790.2 243.4 706.4 256.7 660.3 273.5C614.1 290.3 605.6 310.4 626.4 361.7C647.2 412.9 697.2 495.2 671.7 515.4C646.2 535.6 545.1 493.7 510.5 510.5C476 527.4 508.1 603 511.4 666.4C514.7 729.8 489.2 781 433.3 750.6C377.5 720.1 291.3 608.1 254.1 613.5C216.9 618.8 228.8 741.5 209.3 781.1C189.8 820.7 139 777.3 98.9 751.5C58.8 725.7 29.4 717.5 0 709.3L0 0Z" fill="#7f484f"></path><path d="M613 0C564.2 20 515.4 40 522.5 68.8C529.6 97.5 592.5 135 592.6 158.8C592.7 182.5 529.8 192.5 495.2 205.1C460.6 217.7 454.2 232.8 469.8 271.2C485.4 309.7 522.9 371.4 503.8 386.6C484.6 401.7 408.8 370.3 382.9 382.9C357 395.5 381.1 452.3 383.5 499.8C386 547.4 366.9 585.7 325 562.9C283.1 540.1 218.5 456.1 190.6 460.1C162.7 464.1 171.6 556.1 157 585.8C142.4 615.6 104.3 583 74.2 563.6C44.1 544.3 22.1 538.1 0 532L0 0Z" fill="#522b40"></path><path d="M408.7 0C376.1 13.3 343.6 26.7 348.3 45.9C353.1 65 395 90 395.1 105.9C395.1 121.7 353.2 128.4 330.1 136.7C307.1 145.1 302.8 155.2 313.2 180.8C323.6 206.5 348.6 247.6 335.9 257.7C323.1 267.8 272.5 246.8 255.3 255.3C238 263.7 254 301.5 255.7 333.2C257.3 364.9 244.6 390.5 216.7 375.3C188.7 360.1 145.6 304.1 127.1 306.7C108.5 309.4 114.4 370.7 104.6 390.6C94.9 410.4 69.5 388.7 49.5 375.8C29.4 362.9 14.7 358.8 0 354.7L0 0Z" fill="#24132b"></path><path d="M204.3 0C188.1 6.7 171.8 13.3 174.2 22.9C176.5 32.5 197.5 45 197.5 52.9C197.6 60.8 176.6 64.2 165.1 68.4C153.5 72.6 151.4 77.6 156.6 90.4C161.8 103.2 174.3 123.8 167.9 128.9C161.5 133.9 136.3 123.4 127.6 127.6C119 131.8 127 150.8 127.8 166.6C128.7 182.5 122.3 195.2 108.3 187.6C94.4 180 72.8 152 63.5 153.4C54.2 154.7 57.2 185.4 52.3 195.3C47.5 205.2 34.8 194.3 24.7 187.9C14.7 181.4 7.4 179.4 0 177.3L0 0Z" fill="#0f021f"></path></g></svg>